<?xml version="1.0" standalone="no"?>
<!DOCTYPE svg PUBLIC "-//W3C//DTD SVG 20010904//EN"
 "http://www.w3.org/TR/2001/REC-SVG-20010904/DTD/svg10.dtd">
<svg version="1.0" xmlns="http://www.w3.org/2000/svg"
 width="128.000000pt" height="128.000000pt" viewBox="0 0 128.000000 128.000000"
 preserveAspectRatio="xMidYMid meet">
<metadata>
Created by potrace 1.15, written by Peter Selinger 2001-2017
</metadata>
<g transform="translate(0.000000,128.000000) scale(0.100000,-0.100000)"
fill="#000000" stroke="none">
<path d="M274 1174 c-58 -21 -120 -77 -152 -138 l-27 -51 0 -345 0 -345 27
-51 c15 -29 46 -68 69 -88 76 -65 96 -67 471 -64 322 3 334 4 374 25 58 31
103 79 130 138 23 49 24 55 24 385 0 330 -1 336 -24 385 -27 59 -72 107 -130
138 -40 21 -51 22 -381 24 -279 2 -347 -1 -381 -13z m760 -24 c27 -14 64 -42
82 -64 61 -71 64 -93 62 -450 l-2 -321 -6 335 c-5 320 -6 337 -27 376 -12 22
-40 57 -62 77 -68 61 -105 67 -438 67 -174 0 -311 -4 -336 -11 -63 -15 -128
-68 -162 -130 l-30 -54 0 -335 0 -335 30 -54 c35 -64 84 -106 145 -127 39 -12
40 -14 10 -9 -80 12 -171 108 -190 200 -7 36 -10 157 -8 357 3 266 5 308 21
343 31 69 103 133 177 156 14 4 174 7 355 6 l330 -2 49 -25z m-342 -227 c15
-13 18 -31 18 -99 0 -118 -3 -114 100 -114 104 0 133 -15 133 -70 0 -55 -29
-70 -133 -70 -103 0 -100 4 -100 -113 0 -93 -13 -117 -65 -117 -56 0 -74 31
-77 135 l-3 90 -90 3 c-100 3 -135 22 -135 72 0 50 35 69 135 72 l90 3 3 90
c2 75 6 93 24 112 26 27 73 30 100 6z"/>
</g>
</svg>
